#!OML:ASF H:\MichaelJackson\Top Level 1\Subject 1\Session 1\male.ASF
:FULLY-SPECIFIED
:DEGREES
1510
root 0.13655 17.0697 27.159 -348.963 -35.0459 1.93952
lowerback 4.594 0.445042 -2.29246
upperback 1.96024 0.463752 -1.61179
thorax -0.56684 0.219758 -0.390829
lowerneck -9.57544 -1.18567 1.31906
upperneck 18.9962 -2.14223 0.969851
head 7.40557 -0.876964 -0.104151
rclavicle -2.89232e-014 9.54166e-015
rhumerus -213.164 145.555 -265.127
rradius 110.181
rwrist -5.38326
rhand 7.19148 -16.4394
rfingers 7.12502
rthumb 32.4579 -403.552
lclavicle -2.89232e-014 9.54166e-015
lhumerus -55.2798 -20.7801 96.7704
lradius 72.4553
lwrist 23.9592
lhand -25.1237 22.1549
lfingers 7.12502
lthumb 1.39211 52.1301
rfemur -55.1256 -13.0654 21.5599
rtibia 82.2866
rfoot 20.0327 2.81257
rtoes 18.5575
lfemur -29.0006 8.05395 -25.7183
ltibia 35.4811
lfoot -13.635 -10.2922
ltoes 41.5184
1511
root 0.118108 17.0786 27.2046 -349.299 -34.9858 2.45563
lowerback 4.72743 0.421218 -2.5117
upperback 1.96032 0.415129 -1.74955
thorax -0.640984 0.195088 -0.408018
lowerneck -9.59879 -1.20283 1.29935
upperneck 19.0013 -2.16515 0.982486
head 7.41175 -0.887843 -0.0990382
rclavicle -3.18055e-015 1.07344e-014
rhumerus -211.362 145.201 -263.732
rradius 111.226
rwrist -6.36326
rhand 8.5765 -16.1254
rfingers 7.12502
rthumb 33.775 -402.959
lclavicle -3.18055e-015 1.07344e-014
lhumerus -56.4654 -20.4911 96.9161
lradius 72.2413
lwrist 23.5348
lhand -24.9065 22.5325
lfingers 7.12502
lthumb 1.60184 52.5062
rfemur -56.8385 -13.6418 21.4028
rtibia 83.2227
rfoot 20.2276 3.5182
rtoes 17.6623
lfemur -28.5059 7.94101 -26.2138
ltibia 34.9728
lfoot -13.6428 -10.1837
ltoes 41.2143
1512
root 0.0989116 17.0858 27.2504 -349.573 -34.9297 2.955
lowerback 4.8183 0.404531 -2.71845
upperback 1.94907 0.377322 -1.881
thorax -0.703018 0.175973 -0.425972
lowerneck -9.62153 -1.22702 1.27373
upperneck 18.9868 -2.19475 0.989061
head 7.41135 -0.90296 -0.0954187
rclavicle -1.21954e-013 3.45885e-014
rhumerus -209.513 144.97 -262.324
rradius 112.187
rwrist -7.37541
rhand 9.90817 -15.801
rfingers 7.12502
rthumb 35.0392 -402.348
lclavicle -1.21954e-013 3.45885e-014
lhumerus -57.6834 -20.207 97.0625
lradius 72.1518
lwrist 23.1342
lhand -24.6003 22.8936
lfingers 7.12502
lthumb 1.89763 52.8649
rfemur -58.5059 -14.1407 21.294
rtibia 83.8457
rfoot 20.0654 4.25918
rtoes 16.8904
lfemur -28.0514 7.78102 -26.696
ltibia 34.4281
lfoot -13.6364 -9.99867
ltoes 40.8092
1513
root 0.0788777 17.0915 27.2964 -349.783 -34.8807 3.43139
lowerback 4.86377 0.395681 -2.90898
upperback 1.93045 0.35209 -2.00429
thorax -0.747349 0.163198 -0.445016
lowerneck -9.65031 -1.25795 1.24585
upperneck 18.9575 -2.22998 0.982029
head 7.40704 -0.922151 -0.0963367
rclavicle 3.68746e-014 -3.18055e-015
rhumerus -207.639 144.871 -260.929
rradius 113.07
rwrist -8.42672
rhand 11.2457 -15.5059
rfingers 7.12502
rthumb 36.3069 -401.746
lclavicle 3.68746e-014 -3.18055e-015
lhumerus -58.9269 -19.9318 97.2124
lradius 72.1971
lwrist 22.8652
lhand -24.2597 23.2253
lfingers 7.12502
lthumb 2.22655 53.1934
rfemur -60.1158 -14.5507 21.2349
rtibia 84.1574
rfoot 19.6776 4.97393
rtoes 16.3431
lfemur -27.6797 7.62046 -27.1628
ltibia 33.9429
lfoot -13.6495 -9.80715
ltoes 40.3789
1514
root 0.0589851 17.115 27.3421 -349.933 -34.8418 3.87114
lowerback 4.86924 0.393717 -3.07991
upperback 1.90855 0.338695 -2.11284
thorax -0.772859 0.156321 -0.46031
lowerneck -9.68057 -1.2925 1.21471
upperneck 18.9151 -2.26553 0.957008
head 7.39846 -0.943374 -0.102535
rclavicle 2.24627e-014 2.5842e-014
rhumerus -205.759 144.903 -259.567
rradius 113.877
rwrist -9.52406
rhand 12.617 -15.2398
rfingers 7.12502
rthumb 37.604 -401.146
lclavicle 2.24627e-014 2.5842e-014
lhumerus -60.1894 -19.6595 97.3728
lradius 72.3825
lwrist 22.8273
lhand -23.9339 23.5294
lfingers 7.12502
lthumb 2.54122 53.4941
rfemur -61.5227 -14.8647 21.2194
rtibia 84.0394
rfoot 19.1997 5.59761
rtoes 16.042
lfemur -27.3476 7.50503 -27.6041
ltibia 33.4804
lfoot -13.6652 -9.66279
ltoes 39.9737
1515
root 0.0371197 17.1175 27.3876 -350.035 -34.8097 4.27325
lowerback 4.85057 0.399728 -3.2342
upperback 1.88429 0.338008 -2.20516
thorax -0.78753 0.155798 -0.468826
lowerneck -9.71482 -1.33179 1.17733
upperneck 18.8697 -2.30354 0.917613
head 7.38952 -0.967445 -0.112609
rclavicle 9.78021e-014 -2.38542e-015
rhumerus -203.905 145.076 -258.265
rradius 114.618
rwrist -10.7039
rhand 14.0731 -15.0163
rfingers 7.12502
rthumb 38.9784 -400.542
lclavicle 9.78021e-014 -2.38542e-015
lhumerus -61.4672 -19.4049 97.5585
lradius 72.7035
lwrist 23.0836
lhand -23.6741 23.8447
lfingers 7.12502
lthumb 2.79212 53.8062
rfemur -62.9107 -15.0748 21.2404
rtibia 83.6856
rfoot 18.7517 6.06948
rtoes 15.9413
lfemur -27.1216 7.47209 -28.0203
ltibia 33.1293
lfoot -13.6943 -9.61825
ltoes 39.6258
1516
root 0.0141552 17.118 27.4325 -350.103 -34.7775 4.63946
lowerback 4.81531 0.411406 -3.37456
upperback 1.86435 0.346825 -2.28094
thorax -0.788683 0.159909 -0.468562
lowerneck -9.7541 -1.37685 1.13337
upperneck 18.8246 -2.34616 0.867461
head 7.38144 -0.99506 -0.125547
rclavicle 4.4329e-014 3.1408e-014
rhumerus -202.097 145.387 -257.047
rradius 115.298
rwrist -11.9921
rhand 15.6259 -14.8435
rfingers 7.12502
rthumb 40.4405 -399.935
lclavicle 4.4329e-014 3.1408e-014
lhumerus -62.7473 -19.1767 97.7759
lradius 73.151
lwrist 23.648
lhand -23.5073 24.2002
lfingers 7.12502
lthumb 2.95315 54.1595
rfemur -64.1414 -15.2002 21.2788
rtibia 82.9986
rfoot 18.3849 6.38851
rtoes 15.9845
lfemur -26.9496 7.53444 -28.4108
ltibia 32.8475
lfoot -13.7201 -9.70454
ltoes 39.4065
1517
root -0.010171 17.1161 27.4765 -350.157 -34.7383 4.98014
lowerback 4.77795 0.427845 -3.51352
upperback 1.85201 0.362743 -2.34224
thorax -0.781078 0.167401 -0.454564
lowerneck -9.80161 -1.42783 1.07977
upperneck 18.7853 -2.39541 0.817245
head 7.37686 -1.02638 -0.137613
rclavicle 2.17669e-014 -2.10712e-014
rhumerus -200.357 145.831 -255.934
rradius 115.916
rwrist -13.4209
rhand 17.2639 -14.7208
rfingers 7.12502
rthumb 41.9782 -399.318
lclavicle 2.17669e-014 -2.10712e-014
lhumerus -64.0206 -18.9824 98.0294
lradius 73.7098
lwrist 24.4982
lhand -23.4455 24.6037
lfingers 7.12502
lthumb 3.01286 54.5622
rfemur -65.1901 -15.2559 21.3108
rtibia 82.0205
rfoot 18.0825 6.59943
rtoes 16.0619
lfemur -26.8609 7.68827 -28.7802
ltibia 32.7342
lfoot -13.8005 -9.92847
ltoes 39.3331
1518
root -0.0359352 17.1118 27.5196 -350.211 -34.6779 5.30553
lowerback 4.74358 0.445837 -3.65532
upperback 1.84997 0.381084 -2.39301
thorax -0.764719 0.175875 -0.428275
lowerneck -9.8493 -1.48497 1.01699
upperneck 18.7464 -2.45317 0.775877
head 7.37264 -1.06156 -0.14607
rclavicle 1.92821e-014 -3.55825e-014
rhumerus -198.704 146.411 -254.944
rradius 116.472
rwrist -15.0146
rhand 19.0221 -14.6483
rfingers 7.12502
rthumb 43.623 -398.67
lclavicle 1.92821e-014 -3.55825e-014
lhumerus -65.2855 -18.8298 98.3228
lradius 74.3594
lwrist 25.5536
lhand -23.507 25.0418
lfingers 7.12502
lthumb 2.95349 55.0011
rfemur -66.0406 -15.2686 21.3178
rtibia 80.7776
rfoot 17.8346 6.73837
rtoes 16.1556
lfemur -26.848 7.91307 -29.1338
ltibia 32.796
lfoot -13.9415 -10.2822
ltoes 39.4115
1519
root -0.0632583 17.105 27.5619 -350.278 -34.5841 5.62587
lowerback 4.71917 0.460888 -3.80747
upperback 1.85716 0.395067 -2.43534
thorax -0.744477 0.181964 -0.38736
lowerneck -9.8902 -1.54819 0.950092
upperneck 18.7086 -2.51996 0.742219
head 7.36778 -1.10068 -0.152118
rclavicle -4.25399e-014 -2.38542e-015
rhumerus -197.155 147.112 -254.091
rradius 116.963
rwrist -16.8044
rhand 20.8613 -14.6229
rfingers 7.12502
rthumb 45.3365 -397.989
lclavicle -4.25399e-014 -2.38542e-015
lhumerus -66.5458 -18.7166 98.6612
lradius 75.0785
lwrist 26.738
lhand -23.7311 25.4474
lfingers 7.12502
lthumb 2.73705 55.4096
rfemur -66.6748 -15.2592 21.2797
rtibia 79.2682
rfoot 17.6492 6.84479
rtoes 16.2727
lfemur -26.8413 8.17952 -29.4761
ltibia 32.9039
lfoot -14.0828 -10.7358
ltoes 39.6045
1520
root -0.0940917 17.074 27.6046 -350.372 -34.4421 5.95348
lowerback 4.71133 0.468349 -3.97614
upperback 1.8763 0.397864 -2.47178
thorax -0.721113 0.182189 -0.330659
lowerneck -9.92394 -1.61416 0.881262
upperneck 18.6718 -2.59187 0.717599
head 7.36213 -1.14157 -0.155326
rclavicle -6.15239e-014 2.98177e-014
rhumerus -195.715 147.928 -253.38
rradius 117.377
rwrist -18.8019
rhand 22.747 -14.6372
rfingers 7.12502
rthumb 47.085 -397.266
lclavicle -6.15239e-014 2.98177e-014
lhumerus -67.7939 -18.6371 99.0385
lradius 75.8422
lwrist 27.9331
lhand -24.113 25.763
lfingers 7.12502
lthumb 2.36826 55.7296
rfemur -67.209 -15.2405 21.1788
rtibia 77.6345
rfoot 17.5257 6.93505
rtoes 16.4043
lfemur -26.8581 8.4594 -29.8134
ltibia 33.0915
lfoot -14.2406 -11.2669
ltoes 39.8834
1521
root -0.124688 17.0626 27.6457 -350.5 -34.2458 6.29652
lowerback 4.71779 0.466198 -4.16816
upperback 1.90563 0.386499 -2.50279
thorax -0.695005 0.175033 -0.254711
lowerneck -9.94241 -1.68249 0.810606
upperneck 18.6374 -2.66798 0.699919
head 7.35476 -1.18405 -0.156231
rclavicle -5.13361e-014 2.56432e-014
rhumerus -194.411 148.844 -252.825
rradius 117.713
rwrist -20.9975
rhand 24.6665 -14.6751
rfingers 7.12502
rthumb 48.8548 -396.479
lclavicle -5.13361e-014 2.56432e-014
lhumerus -69.0299 -18.5779 99.4512
lradius 76.6262
lwrist 29.0274
lhand -24.6399 25.9259
lfingers 7.12502
lthumb 1.8594 55.8975
rfemur -67.3917 -15.2357 20.9925
rtibia 75.7012
rfoot 17.426 7.02407
rtoes 16.5025
lfemur -26.8151 8.73257 -30.1535
ltibia 33.2494
lfoot -14.3923 -11.8481
ltoes 40.2143
